{
  "accessors": [
    {
      "bufferView": 2,
      "componentType": 5126,
      "count": 4,
      "max": [
        -12.47545051574707,
        27.590970993041992,
        8.087568283081055
      ],
      "min": [
        -12.47545051574707,
        11.415834426879883,
        -8.087568283081055
      ],
      "type": "VEC3"
    },
    {
      "bufferView": 2,
      "byteOffset": 48,
      "componentType": 5126,
      "count": 4,
      "max": [
        1.0,
        0.0,
        0.0
      ],
      "min": [
        1.0,
        0.0,
        0.0
      ],
      "type": "VEC3"
    },
    {
      "bufferView": 1,
      "componentType": 5126,
      "count": 4,
      "max": [
        1.0,
        1.0
      ],
      "min": [
        0.0,
        0.0
      ],
      "type": "VEC2"
    },
    {
      "bufferView": 1,
      "byteOffset": 32,
      "componentType": 5126,
      "count": 4,
      "max": [
        1.0,
        1.0
      ],
      "min": [
        0.0,
        0.0
      ],
      "type": "VEC2"
    },
    {
      "bufferView": 0,
      "componentType": 5125,
      "count": 6,
      "type": "SCALAR"
    },
    {
      "bufferView": 2,
      "byteOffset": 96,
      "componentType": 5126,
      "count": 2520,
      "max": [
        2.7643613815307617,
        12.32981014251709,
        3.5716915130615234
      ],
      "min": [
        -3.232875347137451,
        -0.02414819598197937,
        -2.760659694671631
      ],
      "type": "VEC3"
    },
    {
      "bufferView": 2,
      "byteOffset": 30336,
      "componentType": 5126,
      "count": 2520,
      "max": [
        0.9994952082633972,
        0.9993950724601746,
        0.9999265074729919
      ],
      "min": [
        -0.9999890923500061,
        -1.0,
        -0.9999525547027588
      ],
      "type": "VEC3"
    },
    {
      "bufferView": 3,
      "componentType": 5126,
      "count": 2520,
      "max": [
        1.0,
        0.9999354481697083,
        0.9999732971191406,
        1.0
      ],
      "min": [
        -0.9637579917907715,
        -0.8487145304679871,
        -0.9999465346336365,
        -1.0
      ],
      "type": "VEC4"
    },
    {
      "bufferView": 1,
      "byteOffset": 64,
      "componentType": 5126,
      "count": 2520,
      "max": [
        0.9124628901481628,
        0.99609375
      ],
      "min": [
        0.00390625,
        0.00390625
      ],
      "type": "VEC2"
    },
    {
      "bufferView": 0,
      "byteOffset": 24,
      "componentType": 5125,
      "count": 13974,
      "type": "SCALAR"
    },
    {
      "bufferView": 2,
      "byteOffset": 60576,
      "componentType": 5126,
      "count": 47081,
      "max": [
        1.2302327156066895,
        17.23981285095215,
        1.162294864654541
      ],
      "min": [
        -2.334167003631592,
        12.242775917053223,
        -1.9934866428375244
      ],
      "type": "VEC3"
    },
    {
      "bufferView": 2,
      "byteOffset": 625548,
      "componentType": 5126,
      "count": 47081,
      "max": [
        0.9999310374259949,
        0.9999692440032959,
        0.9999538660049438
      ],
      "min": [
        -0.9999357461929321,
        -0.9999473094940186,
        -0.9998858571052551
      ],
      "type": "VEC3"
    },
    {
      "bufferView": 3,
      "byteOffset": 40320,
      "componentType": 5126,
      "count": 47081,
      "max": [
        0.9999427795410156,
        0.9999933838844299,
        0.9999130368232727,
        1.0
      ],
      "min": [
        -0.9999753832817078,
        -0.9999135136604309,
        -0.9999564290046692,
        -1.0
      ],
      "type": "VEC4"
    },
    {
      "bufferView": 1,
      "byteOffset": 20224,
      "componentType": 5126,
      "count": 47081,
      "max": [
        0.99609375,
        0.9871922135353088
      ],
      "min": [
        0.00390625,
        0.00390625
      ],
      "type": "VEC2"
    },
    {
      "bufferView": 0,
      "byteOffset": 55920,
      "componentType": 5125,
      "count": 94032,
      "type": "SCALAR"
    },
    {
      "bufferView": 2,
      "byteOffset": 1190520,
      "componentType": 5126,
      "count": 5694,
      "max": [
        2.194901943206787,
        15.092252731323242,
        0.28591108322143555
      ],
      "min": [
        -3.504560708999634,
        11.320281028747559,
        -3.2723212242126465
      ],
      "type": "VEC3"
    },
    {
      "bufferView": 2,
      "byteOffset": 1258848,
      "componentType": 5126,
      "count": 5694,
      "max": [
        0.9985000491142273,
        0.9986774325370789,
        0.9994572997093201
      ],
      "min": [
        -0.9845081567764282,
        -0.988960325717926,
        -0.9999702572822571
      ],
      "type": "VEC3"
    },
    {
      "bufferView": 1,
      "byteOffset": 396872,
      "componentType": 5126,
      "count": 5694,
      "max": [
        0.9800591468811035,
        0.9479061961174011
      ],
      "min": [
        -0.006556034088134766,
        0.057541608810424805
      ],
      "type": "VEC2"
    },
    {
      "bufferView": 0,
      "byteOffset": 432048,
      "componentType": 5125,
      "count": 31755,
      "type": "SCALAR"
    }
  ],
  "asset": {
    "extras": {
      "author": "CEJAYS (https://sketchfab.com/ncd.blueberry)",
      "license": "CC-BY-4.0 (http://creativecommons.org/licenses/by/4.0/)",
      "source": "https://sketchfab.com/3d-models/guts-berserker-armor-dd3eaba750db4f35b42302252b3a87ef",
      "title": "Guts Berserker Armor"
    },
    "generator": "Sketchfab-15.32.0",
    "version": "2.0"
  },
  "bufferViews": [
    {
      "buffer": 0,
      "byteLength": 559068,
      "name": "floatBufferViews",
      "target": 34963
    },
    {
      "buffer": 0,
      "byteLength": 442424,
      "byteOffset": 559068,
      "byteStride": 8,
      "name": "floatBufferViews",
      "target": 34962
    },
    {
      "buffer": 0,
      "byteLength": 1327176,
      "byteOffset": 1001492,
      "byteStride": 12,
      "name": "floatBufferViews",
      "target": 34962
    },
    {
      "buffer": 0,
      "byteLength": 793616,
      "byteOffset": 2328668,
      "byteStride": 16,
      "name": "floatBufferViews",
      "target": 34962
    }
  ],
  "buffers": [
    {
      "byteLength": 3122284,
      "uri": "scene.bin"
    }
  ],
  "extensionsUsed": [
    "KHR_materials_emissive_strength",
    "KHR_materials_specular"
  ],
  "images": [
    {
      "uri": "textures/moon_baseColor.png"
    },
    {
      "uri": "textures/STONEeeestone_baseColor.png"
    },
    {
      "uri": "textures/STONEeeestone_metallicRoughness.png"
    },
    {
      "uri": "textures/STONEeeestone_normal.png"
    },
    {
      "uri": "textures/STONEeeestone_specularf0.png"
    },
    {
      "uri": "textures/berserkerSWORD_baseColor.png"
    },
    {
      "uri": "textures/berserkerSWORD_metallicRoughness.png"
    },
    {
      "uri": "textures/berserkerSWORD_emissive.png"
    },
    {
      "uri": "textures/berserkerSWORD_normal.png"
    },
    {
      "uri": "textures/berserkerSWORD_specularf0.png"
    },
    {
      "uri": "textures/cape1_baseColor.png"
    },
    {
      "uri": "textures/cape1_metallicRoughness.png"
    },
    {
      "uri": "textures/cape1_specularf0.png"
    }
  ],
  "materials": [
    {
      "alphaMode": "BLEND",
      "doubleSided": true,
      "name": "moon",
      "pbrMetallicRoughness": {
        "baseColorTexture": {
          "index": 0
        },
        "metallicFactor": 0.0,
        "roughnessFactor": 0.6
      }
    },
    {
      "doubleSided": true,
      "extensions": {
        "KHR_materials_emissive_strength": {
          "emissiveStrength": 1.386670892711292
        },
        "KHR_materials_specular": {
          "specularColorFactor": [
            1.0,
            1.0,
            1.0
          ],
          "specularFactor": 1.0,
          "specularTexture": {
            "index": 4
          }
        }
      },
      "name": "STONEeeestone",
      "normalTexture": {
        "index": 3
      },
      "pbrMetallicRoughness": {
        "baseColorTexture": {
          "index": 1
        },
        "metallicRoughnessTexture": {
          "index": 2
        }
      }
    },
    {
      "doubleSided": true,
      "emissiveFactor": [
        1.0,
        1.0,
        1.0
      ],
      "emissiveTexture": {
        "index": 7
      },
      "extensions": {
        "KHR_materials_emissive_strength": {
          "emissiveStrength": 4.068583828064999
        },
        "KHR_materials_specular": {
          "specularColorFactor": [
            1.0,
            1.0,
            1.0
          ],
          "specularFactor": 1.0,
          "specularTexture": {
            "index": 9
          }
        }
      },
      "name": "berserkerSWORD",
      "normalTexture": {
        "index": 8
      },
      "pbrMetallicRoughness": {
        "baseColorTexture": {
          "index": 5
        },
        "metallicRoughnessTexture": {
          "index": 6
        }
      }
    },
    {
      "doubleSided": true,
      "extensions": {
        "KHR_materials_specular": {
          "specularColorFactor": [
            1.0,
            1.0,
            1.0
          ],
          "specularFactor": 1.0,
          "specularTexture": {
            "index": 12
          }
        }
      },
      "name": "cape1",
      "pbrMetallicRoughness": {
        "baseColorTexture": {
          "index": 10
        },
        "metallicRoughnessTexture": {
          "index": 11
        }
      }
    }
  ],
  "meshes": [
    {
      "name": "pPlane2_moon_0",
      "primitives": [
        {
          "attributes": {
            "NORMAL": 1,
            "POSITION": 0,
            "TEXCOORD_0": 2,
            "TEXCOORD_1": 3
          },
          "indices": 4,
          "material": 0,
          "mode": 4
        }
      ]
    },
    {
      "name": "pPlane2_STONEeee:stone_0",
      "primitives": [
        {
          "attributes": {
            "NORMAL": 6,
            "POSITION": 5,
            "TANGENT": 7,
            "TEXCOORD_0": 8
          },
          "indices": 9,
          "material": 1,
          "mode": 4
        }
      ]
    },
    {
      "name": "pPlane2_berserker:SWORD_0",
      "primitives": [
        {
          "attributes": {
            "NORMAL": 11,
            "POSITION": 10,
            "TANGENT": 12,
            "TEXCOORD_0": 13
          },
          "indices": 14,
          "material": 2,
          "mode": 4
        }
      ]
    },
    {
      "name": "pPlane2_cape1_0",
      "primitives": [
        {
          "attributes": {
            "NORMAL": 16,
            "POSITION": 15,
            "TEXCOORD_0": 17
          },
          "indices": 18,
          "material": 3,
          "mode": 4
        }
      ]
    }
  ],
  "nodes": [
    {
      "children": [
        1
      ],
      "matrix": [
        1.0,
        0.0,
        0.0,
        0.0,
        0.0,
        2.220446049250313e-16,
        -1.0,
        0.0,
        0.0,
        1.0,
        2.220446049250313e-16,
        0.0,
        0.0,
        0.0,
        0.0,
        1.0
      ],
      "name": "Sketchfab_model"
    },
    {
      "children": [
        2
      ],
      "matrix": [
        0.009999999776482582,
        0.0,
        0.0,
        0.0,
        0.0,
        0.0,
        0.009999999776482582,
        0.0,
        0.0,
        -0.009999999776482582,
        0.0,
        0.0,
        0.0,
        0.0,
        0.0,
        1.0
      ],
      "name": "0e846c7480d141a8bc0e9c726c372b39.fbx"
    },
    {
      "children": [
        3
      ],
      "name": "RootNode"
    },
    {
      "children": [
        4,
        5,
        6,
        7
      ],
      "name": "pPlane2"
    },
    {
      "mesh": 0,
      "name": "pPlane2_moon_0"
    },
    {
      "mesh": 1,
      "name": "pPlane2_STONEeee:stone_0"
    },
    {
      "mesh": 2,
      "name": "pPlane2_berserker:SWORD_0"
    },
    {
      "mesh": 3,
      "name": "pPlane2_cape1_0"
    }
  ],
  "samplers": [
    {
      "magFilter": 9729,
      "minFilter": 9987,
      "wrapS": 10497,
      "wrapT": 10497
    }
  ],
  "scene": 0,
  "scenes": [
    {
      "name": "Sketchfab_Scene",
      "nodes": [
        0
      ]
    }
  ],
  "textures": [
    {
      "sampler": 0,
      "source": 0
    },
    {
      "sampler": 0,
      "source": 1
    },
    {
      "sampler": 0,
      "source": 2
    },
    {
      "sampler": 0,
      "source": 3
    },
    {
      "sampler": 0,
      "source": 4
    },
    {
      "sampler": 0,
      "source": 5
    },
    {
      "sampler": 0,
      "source": 6
    },
    {
      "sampler": 0,
      "source": 7
    },
    {
      "sampler": 0,
      "source": 8
    },
    {
      "sampler": 0,
      "source": 9
    },
    {
      "sampler": 0,
      "source": 10
    },
    {
      "sampler": 0,
      "source": 11
    },
    {
      "sampler": 0,
      "source": 12
    }
  ]
}
